<?xml version="1.0" standalone="no"?>
<!DOCTYPE svg PUBLIC "-//W3C//DTD SVG 20010904//EN"
 "http://www.w3.org/TR/2001/REC-SVG-20010904/DTD/svg10.dtd">
<svg version="1.0" xmlns="http://www.w3.org/2000/svg"
 width="200.000000pt" height="200.000000pt" viewBox="0 0 200.000000 200.000000"
 preserveAspectRatio="xMidYMid meet">

<g transform="translate(0.000000,200.000000) scale(0.100000,-0.100000)"
fill="#000000" stroke="none">
<path d="M0 1000 l0 -1000 1000 0 1000 0 0 1000 0 1000 -1000 0 -1000 0 0
-1000z m1060 564 c68 -104 94 -187 95 -299 0 -122 -7 -145 -45 -145 -30 0 -30
0 -30 58 0 94 -50 248 -85 259 -15 5 -74 -97 -96 -164 -34 -100 -23 -251 25
-368 13 -34 14 -37 0 -20 -8 11 -23 41 -32 68 -10 29 -22 45 -29 43 -7 -3 -19
7 -27 22 -13 22 -15 24 -16 8 0 -31 -16 -6 -29 46 -40 167 19 377 144 516 31
34 61 59 67 56 5 -4 32 -40 58 -80z m649 -10 c70 -93 122 -189 158 -292 37
-107 37 -108 46 -342 16 -409 16 -405 -23 -483 -60 -120 -209 -238 -335 -266
-27 -6 -106 -17 -175 -26 -69 -8 -156 -22 -195 -31 -110 -25 -293 -14 -412 25
-133 44 -257 113 -343 191 -37 33 -25 31 25 -5 89 -64 216 -120 342 -151 135
-32 345 -18 473 32 35 14 35 15 37 79 1 36 7 84 14 108 10 37 53 134 66 147 2
3 52 10 111 16 59 6 88 12 65 13 -24 0 -43 6 -43 11 0 6 -31 10 -73 10 -96 0
-200 28 -275 74 -84 52 -107 78 -93 105 14 26 18 26 59 1 70 -43 263 -83 278
-58 10 15 -63 132 -115 184 -65 65 -153 110 -266 135 l-90 19 65 -4 c36 -3 72
-7 80 -9 8 -2 12 -2 8 0 -14 8 -8 33 7 33 8 0 15 6 16 13 0 9 2 9 6 -1 3 -9 9
-10 17 -3 15 13 123 -30 193 -76 70 -46 154 -139 199 -219 32 -58 38 -64 53
-51 24 20 135 67 165 69 14 1 26 5 26 8 0 4 10 6 22 6 31 -1 46 49 54 172 12
198 -58 424 -182 589 -14 18 -19 30 -12 27 7 -2 28 -25 47 -50z m-915 -590 c5
-18 -2 -27 -43 -53 -82 -53 -194 -185 -174 -205 10 -10 153 -7 202 5 102 23
204 92 282 192 22 27 39 44 39 39 0 -6 -18 -33 -40 -61 -41 -51 -49 -68 -28
-55 7 4 8 3 4 -5 -4 -6 -11 -9 -15 -6 -5 2 -17 -2 -27 -10 -17 -13 -17 -14 -2
-15 9 0 18 5 20 10 2 6 11 4 23 -5 11 -9 14 -14 8 -10 -8 4 -13 -1 -13 -13 0
-28 -86 -102 -161 -138 -100 -49 -193 -68 -302 -61 -109 7 -167 23 -167 47 0
37 75 164 132 226 47 49 81 74 151 109 50 25 94 42 98 38 4 -4 10 -18 13 -29z"/>
</g>
</svg>
